<mxfile host="app.diagrams.net" agent="Mozilla/5.0 (X11; Ubuntu; Linux x86_64; rv:128.0) Gecko/20100101 Firefox/128.0" version="24.7.6">
  <diagram id="C5RBs43oDa-KdzZeNtuy" name="Page-1">
    <mxGraphModel dx="2493" dy="774" grid="1" gridSize="10" guides="1" tooltips="1" connect="1" arrows="1" fold="1" page="1" pageScale="1" pageWidth="1169" pageHeight="827" math="0" shadow="0">
      <root>
        <mxCell id="WIyWlLk6GJQsqaUBKTNV-0" />
        <mxCell id="WIyWlLk6GJQsqaUBKTNV-1" parent="WIyWlLk6GJQsqaUBKTNV-0" />
        <mxCell id="KiPP0bkD1e9r1e8dgF9X-14" value="Container" style="swimlane;whiteSpace=wrap;html=1;rounded=1;shadow=0;comic=0;labelBackgroundColor=none;strokeWidth=1;fontFamily=Verdana;fontSize=12;align=center;" vertex="1" parent="WIyWlLk6GJQsqaUBKTNV-1">
          <mxGeometry x="-160" y="670" width="900" height="260" as="geometry" />
        </mxCell>
        <mxCell id="KiPP0bkD1e9r1e8dgF9X-15" style="edgeStyle=elbowEdgeStyle;html=1;labelBackgroundColor=none;endArrow=open;endSize=8;strokeColor=#ff0000;fontFamily=Verdana;fontSize=12;align=left;rounded=0;" edge="1" parent="KiPP0bkD1e9r1e8dgF9X-14" source="KiPP0bkD1e9r1e8dgF9X-16" target="KiPP0bkD1e9r1e8dgF9X-21">
          <mxGeometry relative="1" as="geometry" />
        </mxCell>
        <mxCell id="KiPP0bkD1e9r1e8dgF9X-16" value="LOGIN" style="rounded=1;whiteSpace=wrap;html=1;arcSize=24;fillColor=#ffffc0;strokeColor=#ff0000;shadow=0;comic=0;labelBackgroundColor=none;fontFamily=Verdana;fontSize=12;fontColor=#000000;align=center;" vertex="1" parent="KiPP0bkD1e9r1e8dgF9X-14">
          <mxGeometry x="215" y="65" width="120" height="60" as="geometry" />
        </mxCell>
        <mxCell id="KiPP0bkD1e9r1e8dgF9X-17" value="" style="ellipse;html=1;shape=endState;fillColor=#000000;strokeColor=#ff0000;rounded=1;shadow=0;comic=0;labelBackgroundColor=none;fontFamily=Verdana;fontSize=12;fontColor=#000000;align=center;" vertex="1" parent="KiPP0bkD1e9r1e8dgF9X-14">
          <mxGeometry x="815" y="80" width="30" height="30" as="geometry" />
        </mxCell>
        <mxCell id="KiPP0bkD1e9r1e8dgF9X-18" style="edgeStyle=elbowEdgeStyle;html=1;labelBackgroundColor=none;endArrow=open;endSize=8;strokeColor=#ff0000;fontFamily=Verdana;fontSize=12;align=left;rounded=0;" edge="1" parent="KiPP0bkD1e9r1e8dgF9X-14" source="KiPP0bkD1e9r1e8dgF9X-19" target="KiPP0bkD1e9r1e8dgF9X-16">
          <mxGeometry relative="1" as="geometry" />
        </mxCell>
        <mxCell id="KiPP0bkD1e9r1e8dgF9X-53" style="edgeStyle=orthogonalEdgeStyle;rounded=0;orthogonalLoop=1;jettySize=auto;html=1;entryX=0;entryY=0.5;entryDx=0;entryDy=0;" edge="1" parent="KiPP0bkD1e9r1e8dgF9X-14" source="KiPP0bkD1e9r1e8dgF9X-19" target="KiPP0bkD1e9r1e8dgF9X-52">
          <mxGeometry relative="1" as="geometry" />
        </mxCell>
        <mxCell id="KiPP0bkD1e9r1e8dgF9X-19" value="" style="ellipse;html=1;shape=startState;fillColor=#000000;strokeColor=#ff0000;rounded=1;shadow=0;comic=0;labelBackgroundColor=none;fontFamily=Verdana;fontSize=12;fontColor=#000000;align=center;direction=south;" vertex="1" parent="KiPP0bkD1e9r1e8dgF9X-14">
          <mxGeometry x="75" y="80" width="30" height="30" as="geometry" />
        </mxCell>
        <mxCell id="KiPP0bkD1e9r1e8dgF9X-20" style="edgeStyle=elbowEdgeStyle;html=1;labelBackgroundColor=none;endArrow=open;endSize=8;strokeColor=#ff0000;fontFamily=Verdana;fontSize=12;align=left;rounded=0;" edge="1" parent="KiPP0bkD1e9r1e8dgF9X-14" source="KiPP0bkD1e9r1e8dgF9X-21" target="KiPP0bkD1e9r1e8dgF9X-23">
          <mxGeometry relative="1" as="geometry" />
        </mxCell>
        <mxCell id="KiPP0bkD1e9r1e8dgF9X-21" value="GET MQ INFO" style="rounded=1;whiteSpace=wrap;html=1;arcSize=24;fillColor=#ffffc0;strokeColor=#ff0000;shadow=0;comic=0;labelBackgroundColor=none;fontFamily=Verdana;fontSize=12;fontColor=#000000;align=center;" vertex="1" parent="KiPP0bkD1e9r1e8dgF9X-14">
          <mxGeometry x="400" y="65" width="120" height="60" as="geometry" />
        </mxCell>
        <mxCell id="KiPP0bkD1e9r1e8dgF9X-22" style="edgeStyle=elbowEdgeStyle;html=1;labelBackgroundColor=none;endArrow=open;endSize=8;strokeColor=#ff0000;fontFamily=Verdana;fontSize=12;align=left;rounded=0;" edge="1" parent="KiPP0bkD1e9r1e8dgF9X-14" source="KiPP0bkD1e9r1e8dgF9X-23" target="KiPP0bkD1e9r1e8dgF9X-17">
          <mxGeometry relative="1" as="geometry" />
        </mxCell>
        <mxCell id="KiPP0bkD1e9r1e8dgF9X-23" value="CONNECT MD" style="rounded=1;whiteSpace=wrap;html=1;arcSize=24;fillColor=#ffffc0;strokeColor=#ff0000;shadow=0;comic=0;labelBackgroundColor=none;fontFamily=Verdana;fontSize=12;fontColor=#000000;align=center;" vertex="1" parent="KiPP0bkD1e9r1e8dgF9X-14">
          <mxGeometry x="585" y="65" width="120" height="60" as="geometry" />
        </mxCell>
        <mxCell id="KiPP0bkD1e9r1e8dgF9X-55" style="edgeStyle=orthogonalEdgeStyle;rounded=0;orthogonalLoop=1;jettySize=auto;html=1;" edge="1" parent="KiPP0bkD1e9r1e8dgF9X-14" source="KiPP0bkD1e9r1e8dgF9X-52" target="KiPP0bkD1e9r1e8dgF9X-54">
          <mxGeometry relative="1" as="geometry" />
        </mxCell>
        <mxCell id="KiPP0bkD1e9r1e8dgF9X-52" value="BUY VIP" style="rounded=1;whiteSpace=wrap;html=1;arcSize=24;fillColor=#ffffc0;strokeColor=#ff0000;shadow=0;comic=0;labelBackgroundColor=none;fontFamily=Verdana;fontSize=12;fontColor=#000000;align=center;" vertex="1" parent="KiPP0bkD1e9r1e8dgF9X-14">
          <mxGeometry x="215" y="157" width="120" height="60" as="geometry" />
        </mxCell>
        <mxCell id="KiPP0bkD1e9r1e8dgF9X-56" style="edgeStyle=orthogonalEdgeStyle;rounded=0;orthogonalLoop=1;jettySize=auto;html=1;" edge="1" parent="KiPP0bkD1e9r1e8dgF9X-14" source="KiPP0bkD1e9r1e8dgF9X-54" target="KiPP0bkD1e9r1e8dgF9X-23">
          <mxGeometry relative="1" as="geometry" />
        </mxCell>
        <mxCell id="KiPP0bkD1e9r1e8dgF9X-54" value="&lt;div&gt;Remove AD&lt;/div&gt;&lt;div&gt;Get a VIP MQ&lt;br&gt;&lt;/div&gt;" style="rounded=1;whiteSpace=wrap;html=1;arcSize=24;fillColor=#ffffc0;strokeColor=#ff0000;shadow=0;comic=0;labelBackgroundColor=none;fontFamily=Verdana;fontSize=12;fontColor=#000000;align=center;" vertex="1" parent="KiPP0bkD1e9r1e8dgF9X-14">
          <mxGeometry x="400" y="160" width="120" height="60" as="geometry" />
        </mxCell>
        <mxCell id="KiPP0bkD1e9r1e8dgF9X-26" value="DATAFLOW" style="shape=umlFrame;whiteSpace=wrap;html=1;pointerEvents=0;recursiveResize=0;container=1;collapsible=0;width=160;" vertex="1" parent="WIyWlLk6GJQsqaUBKTNV-1">
          <mxGeometry x="-160" y="20" width="460" height="610" as="geometry" />
        </mxCell>
        <mxCell id="KiPP0bkD1e9r1e8dgF9X-0" value="&lt;div&gt;APP&lt;/div&gt;" style="shape=module;align=left;spacingLeft=20;align=center;verticalAlign=top;whiteSpace=wrap;html=1;" vertex="1" parent="KiPP0bkD1e9r1e8dgF9X-26">
          <mxGeometry x="70" y="250" width="100" height="50" as="geometry" />
        </mxCell>
        <mxCell id="KiPP0bkD1e9r1e8dgF9X-2" value="Win" style="shape=module;align=left;spacingLeft=20;align=center;verticalAlign=top;whiteSpace=wrap;html=1;" vertex="1" parent="KiPP0bkD1e9r1e8dgF9X-26">
          <mxGeometry x="320" y="50" width="100" height="50" as="geometry" />
        </mxCell>
        <mxCell id="KiPP0bkD1e9r1e8dgF9X-3" value="Linux" style="shape=module;align=left;spacingLeft=20;align=center;verticalAlign=top;whiteSpace=wrap;html=1;" vertex="1" parent="KiPP0bkD1e9r1e8dgF9X-26">
          <mxGeometry x="320" y="250" width="100" height="50" as="geometry" />
        </mxCell>
        <mxCell id="KiPP0bkD1e9r1e8dgF9X-6" value="MQ" style="html=1;align=center;verticalAlign=middle;dashed=0;whiteSpace=wrap;" vertex="1" parent="KiPP0bkD1e9r1e8dgF9X-26">
          <mxGeometry x="60" y="40" width="100" height="60" as="geometry" />
        </mxCell>
        <mxCell id="KiPP0bkD1e9r1e8dgF9X-7" value="" style="shape=flexArrow;endArrow=classic;startArrow=classic;html=1;rounded=0;entryX=0.572;entryY=0.983;entryDx=0;entryDy=0;entryPerimeter=0;" edge="1" parent="KiPP0bkD1e9r1e8dgF9X-26" source="KiPP0bkD1e9r1e8dgF9X-0" target="KiPP0bkD1e9r1e8dgF9X-6">
          <mxGeometry width="100" height="100" relative="1" as="geometry">
            <mxPoint x="120" y="280" as="sourcePoint" />
            <mxPoint x="220" y="180" as="targetPoint" />
          </mxGeometry>
        </mxCell>
        <mxCell id="KiPP0bkD1e9r1e8dgF9X-8" value="订阅、发布" style="edgeLabel;html=1;align=center;verticalAlign=middle;resizable=0;points=[];" vertex="1" connectable="0" parent="KiPP0bkD1e9r1e8dgF9X-7">
          <mxGeometry x="0.2487" y="-1" relative="1" as="geometry">
            <mxPoint as="offset" />
          </mxGeometry>
        </mxCell>
        <mxCell id="KiPP0bkD1e9r1e8dgF9X-10" value="" style="shape=flexArrow;endArrow=classic;startArrow=classic;html=1;rounded=0;" edge="1" parent="KiPP0bkD1e9r1e8dgF9X-26" source="KiPP0bkD1e9r1e8dgF9X-3" target="KiPP0bkD1e9r1e8dgF9X-6">
          <mxGeometry width="100" height="100" relative="1" as="geometry">
            <mxPoint x="230" y="271.02" as="sourcePoint" />
            <mxPoint x="233" y="90.01999999999998" as="targetPoint" />
          </mxGeometry>
        </mxCell>
        <mxCell id="KiPP0bkD1e9r1e8dgF9X-11" value="订阅、发布" style="edgeLabel;html=1;align=center;verticalAlign=middle;resizable=0;points=[];" vertex="1" connectable="0" parent="KiPP0bkD1e9r1e8dgF9X-10">
          <mxGeometry x="0.2487" y="-1" relative="1" as="geometry">
            <mxPoint as="offset" />
          </mxGeometry>
        </mxCell>
        <mxCell id="KiPP0bkD1e9r1e8dgF9X-12" value="" style="shape=flexArrow;endArrow=classic;startArrow=classic;html=1;rounded=0;" edge="1" parent="KiPP0bkD1e9r1e8dgF9X-26" source="KiPP0bkD1e9r1e8dgF9X-2" target="KiPP0bkD1e9r1e8dgF9X-6">
          <mxGeometry width="100" height="100" relative="1" as="geometry">
            <mxPoint x="450" y="281" as="sourcePoint" />
            <mxPoint x="453" y="100" as="targetPoint" />
          </mxGeometry>
        </mxCell>
        <mxCell id="KiPP0bkD1e9r1e8dgF9X-13" value="订阅、发布" style="edgeLabel;html=1;align=center;verticalAlign=middle;resizable=0;points=[];" vertex="1" connectable="0" parent="KiPP0bkD1e9r1e8dgF9X-12">
          <mxGeometry x="0.2487" y="-1" relative="1" as="geometry">
            <mxPoint as="offset" />
          </mxGeometry>
        </mxCell>
        <mxCell id="KiPP0bkD1e9r1e8dgF9X-49" value="API" style="html=1;align=center;verticalAlign=middle;dashed=0;whiteSpace=wrap;" vertex="1" parent="KiPP0bkD1e9r1e8dgF9X-26">
          <mxGeometry x="60" y="450" width="100" height="60" as="geometry" />
        </mxCell>
        <mxCell id="KiPP0bkD1e9r1e8dgF9X-50" value="&amp;laquo;Annotation&amp;raquo;&lt;br/&gt;&lt;b&gt;Component&lt;/b&gt;" style="html=1;dropTarget=0;whiteSpace=wrap;" vertex="1" parent="KiPP0bkD1e9r1e8dgF9X-26">
          <mxGeometry x="210" y="435" width="180" height="90" as="geometry" />
        </mxCell>
        <mxCell id="KiPP0bkD1e9r1e8dgF9X-51" value="" style="shape=module;jettyWidth=8;jettyHeight=4;" vertex="1" parent="KiPP0bkD1e9r1e8dgF9X-50">
          <mxGeometry x="1" width="20" height="20" relative="1" as="geometry">
            <mxPoint x="-27" y="7" as="offset" />
          </mxGeometry>
        </mxCell>
        <mxCell id="KiPP0bkD1e9r1e8dgF9X-27" value="&lt;div&gt;use case&lt;/div&gt;" style="shape=umlFrame;whiteSpace=wrap;html=1;pointerEvents=0;recursiveResize=0;container=1;collapsible=0;width=160;" vertex="1" parent="WIyWlLk6GJQsqaUBKTNV-1">
          <mxGeometry x="320" y="20" width="530" height="330" as="geometry" />
        </mxCell>
        <mxCell id="KiPP0bkD1e9r1e8dgF9X-34" value="" style="shape=ellipse;container=1;horizontal=1;horizontalStack=0;resizeParent=1;resizeParentMax=0;resizeLast=0;html=1;dashed=0;collapsible=0;" vertex="1" parent="KiPP0bkD1e9r1e8dgF9X-27">
          <mxGeometry x="30" y="50" width="180" height="120" as="geometry" />
        </mxCell>
        <mxCell id="KiPP0bkD1e9r1e8dgF9X-35" value="new User" style="html=1;strokeColor=none;fillColor=none;align=center;verticalAlign=middle;rotatable=0;whiteSpace=wrap;" vertex="1" parent="KiPP0bkD1e9r1e8dgF9X-34">
          <mxGeometry width="180" height="30" as="geometry" />
        </mxCell>
        <mxCell id="KiPP0bkD1e9r1e8dgF9X-36" value="" style="line;strokeWidth=1;fillColor=none;rotatable=0;labelPosition=right;points=[];portConstraint=eastwest;dashed=0;resizeWidth=1;" vertex="1" parent="KiPP0bkD1e9r1e8dgF9X-34">
          <mxGeometry x="9" y="30" width="162" height="10" as="geometry" />
        </mxCell>
        <mxCell id="KiPP0bkD1e9r1e8dgF9X-37" value="generate new key" style="text;html=1;align=center;verticalAlign=middle;rotatable=0;fillColor=none;strokeColor=none;whiteSpace=wrap;" vertex="1" parent="KiPP0bkD1e9r1e8dgF9X-34">
          <mxGeometry y="40" width="180" height="30" as="geometry" />
        </mxCell>
        <mxCell id="KiPP0bkD1e9r1e8dgF9X-39" value="" style="shape=ellipse;container=1;horizontal=1;horizontalStack=0;resizeParent=1;resizeParentMax=0;resizeLast=0;html=1;dashed=0;collapsible=0;" vertex="1" parent="KiPP0bkD1e9r1e8dgF9X-27">
          <mxGeometry x="240" y="50" width="180" height="120" as="geometry" />
        </mxCell>
        <mxCell id="KiPP0bkD1e9r1e8dgF9X-40" value="Old User" style="html=1;strokeColor=none;fillColor=none;align=center;verticalAlign=middle;rotatable=0;whiteSpace=wrap;" vertex="1" parent="KiPP0bkD1e9r1e8dgF9X-39">
          <mxGeometry width="180" height="30" as="geometry" />
        </mxCell>
        <mxCell id="KiPP0bkD1e9r1e8dgF9X-41" value="" style="line;strokeWidth=1;fillColor=none;rotatable=0;labelPosition=right;points=[];portConstraint=eastwest;dashed=0;resizeWidth=1;" vertex="1" parent="KiPP0bkD1e9r1e8dgF9X-39">
          <mxGeometry x="9" y="30" width="162" height="10" as="geometry" />
        </mxCell>
        <mxCell id="KiPP0bkD1e9r1e8dgF9X-42" value="import old key" style="text;html=1;align=center;verticalAlign=middle;rotatable=0;fillColor=none;strokeColor=none;whiteSpace=wrap;" vertex="1" parent="KiPP0bkD1e9r1e8dgF9X-39">
          <mxGeometry y="40" width="180" height="30" as="geometry" />
        </mxCell>
        <mxCell id="KiPP0bkD1e9r1e8dgF9X-44" value="" style="shape=ellipse;container=1;horizontal=1;horizontalStack=0;resizeParent=1;resizeParentMax=0;resizeLast=0;html=1;dashed=0;collapsible=0;" vertex="1" parent="KiPP0bkD1e9r1e8dgF9X-27">
          <mxGeometry x="30" y="200" width="180" height="120" as="geometry" />
        </mxCell>
        <mxCell id="KiPP0bkD1e9r1e8dgF9X-45" value="encrpyt" style="html=1;strokeColor=none;fillColor=none;align=center;verticalAlign=middle;rotatable=0;whiteSpace=wrap;" vertex="1" parent="KiPP0bkD1e9r1e8dgF9X-44">
          <mxGeometry width="180" height="30" as="geometry" />
        </mxCell>
        <mxCell id="KiPP0bkD1e9r1e8dgF9X-46" value="" style="line;strokeWidth=1;fillColor=none;rotatable=0;labelPosition=right;points=[];portConstraint=eastwest;dashed=0;resizeWidth=1;" vertex="1" parent="KiPP0bkD1e9r1e8dgF9X-44">
          <mxGeometry x="9" y="30" width="162" height="10" as="geometry" />
        </mxCell>
        <mxCell id="KiPP0bkD1e9r1e8dgF9X-47" value="key encrypt" style="text;html=1;align=center;verticalAlign=middle;rotatable=0;fillColor=none;strokeColor=none;whiteSpace=wrap;" vertex="1" parent="KiPP0bkD1e9r1e8dgF9X-44">
          <mxGeometry y="40" width="180" height="30" as="geometry" />
        </mxCell>
      </root>
    </mxGraphModel>
  </diagram>
</mxfile>
